<svg xmlns="http://www.w3.org/2000/svg" xmlns:xlink="http://www.w3.org/1999/xlink" viewBox="0,0,256,256" width="24px" height="24px"><g fill="#193258" fill-rule="nonzero" stroke="none" stroke-width="1" stroke-linecap="butt" stroke-linejoin="miter" stroke-miterlimit="10" stroke-dasharray="" stroke-dashoffset="0" font-family="none" font-weight="none" font-size="none" text-anchor="none" style="mix-blend-mode: normal"><g transform="scale(10.66667,10.66667)"><path d="M11,3l-6,6h-4v6h4l6,6zM19.48438,3.51563l-1.41406,1.41406c3.91386,3.91386 3.91373,10.22781 0,14.14062l1.41406,1.41406c4.67827,-4.67718 4.67814,-12.29061 0,-16.96875zM16.65625,6.34375l-1.41406,1.41406c2.35191,2.35191 2.3517,6.13353 0,8.48438l1.41406,1.41406c3.1163,-3.11516 3.11609,-8.19641 0,-11.3125zM13.82813,9.17188l-1.41406,1.41406c0.79009,0.79009 0.79009,2.03804 0,2.82812l1.41406,1.41602c1.55391,-1.55391 1.55391,-4.10429 0,-5.6582z"></path></g></g></svg>