<svg width="100" height="100" viewBox="0 0 117 100" fill="none" xmlns="http://www.w3.org/2000/svg">
<path d="M96.8014 63.5213L59.9923 1.04134C59.803 0.757339 59.5192 0.473336 59.2353 0.284003C58.9514 0.0946696 58.5729 0 58.1944 0C57.8159 0 57.4374 0.0946696 57.1535 0.284003C56.8697 0.473336 56.5858 0.757339 56.3965 1.04134L45.4201 19.7853C45.0416 20.3533 44.8523 21.1107 44.8523 21.7733C44.8523 22.436 45.0416 23.1933 45.4201 23.7613L69.4548 64.5627C69.8333 65.1307 70.3064 65.6987 70.9688 66.0773C71.6312 66.456 72.2935 66.6453 73.0505 66.6453H95.0035C95.382 66.6453 95.7606 66.5507 96.0444 66.3613C96.3283 66.172 96.6122 65.888 96.8014 65.604C96.9907 65.32 97.0853 64.9413 97.0853 64.5627C97.0853 64.184 96.9907 63.9 96.8014 63.5213Z" fill="#0F52A4"/>
<path d="M0.378501 96.1813L37.1876 33.7013C37.3769 33.4173 37.6607 33.1334 37.9446 32.944C38.2285 32.7547 38.607 32.66 38.9855 32.66C39.364 32.66 39.7425 32.7547 40.0264 32.944C40.3102 33.1334 40.5941 33.4173 40.7834 33.7013L51.7599 52.4454C52.1384 53.0134 52.3276 53.7707 52.3276 54.4334C52.3276 55.096 52.1384 55.8533 51.7599 56.4213L27.7251 97.2227C27.3466 97.7907 26.8735 98.3587 26.2111 98.7374C25.5488 99.116 24.8864 99.3054 24.1294 99.3054H2.08175C1.70325 99.3054 1.32475 99.2107 1.04087 99.0213C0.756999 98.832 0.473128 98.548 0.283878 98.264C0.0946279 97.98 0 97.6013 0 97.2227C0.094625 96.844 0.189251 96.56 0.378501 96.1813Z" fill="#0F52A4"/>
<path d="M40.6888 99.2105H114.307C114.686 99.2105 115.064 99.1159 115.348 98.9266C115.632 98.7372 115.916 98.4532 116.105 98.1692C116.294 97.8852 116.389 97.5065 116.389 97.1279C116.389 96.7492 116.294 96.4652 116.105 96.0866L105.128 77.3425C104.75 76.7745 104.277 76.2065 103.614 75.8279C102.952 75.4492 102.29 75.2599 101.533 75.2599H53.5578C52.8008 75.2599 52.1384 75.4492 51.476 75.8279C50.8137 76.2065 50.3405 76.6799 49.962 77.3425L38.9855 96.0866C38.7963 96.3706 38.7017 96.7492 38.7017 97.1279C38.7017 97.5065 38.7963 97.7905 38.9855 98.1692C39.1748 98.4532 39.4587 98.7372 39.7425 98.9266C40.0264 99.1159 40.4049 99.2105 40.6888 99.2105Z" fill="#0F52A4"/>
</svg>
