<svg width="89" height="91" viewBox="0 0 89 91" fill="none" xmlns="http://www.w3.org/2000/svg">
<path d="M35.8944 0C16.0502 0 0 16.047 0 35.8873C0 55.7275 16.0502 71.7745 35.8944 71.7745C42.1184 71.7745 47.935 70.1708 53.0254 67.3883C54.2581 66.7145 55.8017 66.8734 56.7951 67.8666L78.9053 89.9723C80.0768 91.1436 81.976 91.1436 83.1475 89.9723L87.8753 85.2455C89.0482 84.0728 89.047 82.1709 87.8726 80.9997L66.2586 59.4457C65.1939 58.384 65.0914 56.7052 65.9161 55.448C69.6066 49.8217 71.7888 43.1321 71.7888 35.8873C71.7888 16.047 55.7386 0 35.8944 0ZM35.8944 8.44406C51.0951 8.44406 63.3431 20.6896 63.3431 35.8873C63.3431 51.0849 51.0951 63.3304 35.8944 63.3304C20.6937 63.3304 8.44575 51.0849 8.44575 35.8873C8.44575 20.6896 20.6937 8.44406 35.8944 8.44406Z" fill="#0F52A4"/>
</svg>
