<svg width="702" height="141" viewBox="0 0 702 141" fill="none" xmlns="http://www.w3.org/2000/svg">
<path d="M660.251 140.456C657.526 140.456 655.028 140.144 652.756 139.519C650.485 138.895 648.952 138.327 648.157 137.816L650.712 130.15C651.678 130.548 653.04 131.002 654.8 131.513C656.617 132.081 658.662 132.365 660.933 132.365H661.87C664.481 132.365 666.781 131.57 668.768 129.98C670.812 128.447 672.374 126.375 673.453 123.763H669.194L652.501 85.6065H664.425L674.219 109.113L676.434 115.246H677.285L679.5 109.113L689.465 85.6065H701.048L699.685 90.8019C698.606 93.0163 697.357 95.5714 695.938 98.4672C694.575 101.306 693.155 104.259 691.679 107.325C690.203 110.391 688.755 113.344 687.335 116.183C685.973 119.022 684.752 121.548 683.673 123.763C682.026 127.169 680.21 130.122 678.222 132.62C676.292 135.119 674.049 137.049 671.494 138.412C668.996 139.775 666.015 140.456 662.551 140.456H660.251Z" fill="#0F52A4"/>
<path d="M578.906 123.763V85.6065H585.89L588.02 86.6285C589.666 86.3446 591.682 86.1175 594.067 85.9472C596.452 85.7201 599.291 85.6065 602.584 85.6065H606.842C608.489 85.6065 610.079 85.8336 611.612 86.2879C613.145 86.6853 614.28 87.2815 615.019 88.0764C616.495 87.3383 618.539 86.7421 621.151 86.2879C623.763 85.8336 627.17 85.6065 631.371 85.6065H635.63C638.469 85.6065 640.655 86.004 642.188 86.7989C643.721 87.5938 644.8 88.5875 645.424 89.7798C646.106 90.9722 646.503 92.193 646.617 93.4421C646.787 94.6345 646.872 95.6566 646.872 96.5083V123.763H636.481V96.3379C636.481 94.0667 635.119 92.9311 632.393 92.9311H620.469C619.561 92.9311 618.936 93.0447 618.596 93.2718C618.255 93.4989 618.085 94.0099 618.085 94.8049V123.763H607.694V96.3379C607.694 94.0667 606.331 92.9311 603.606 92.9311H591.852C590.774 92.9311 590.064 93.0447 589.723 93.2718C589.439 93.4421 589.297 93.9532 589.297 94.8049V123.763H578.906Z" fill="#0F52A4"/>
<path d="M536.482 123.763C533.643 123.763 531.457 123.394 529.924 122.655C528.391 121.917 527.284 120.98 526.602 119.845C525.978 118.709 525.58 117.517 525.41 116.268C525.296 115.019 525.24 113.883 525.24 112.861V96.5083C525.24 95.6566 525.296 94.6345 525.41 93.4421C525.58 92.193 525.978 90.9722 526.602 89.7798C527.284 88.5875 528.391 87.5938 529.924 86.7989C531.514 86.004 533.7 85.6065 536.482 85.6065H554.793C558.541 85.6065 561.465 85.9756 563.566 86.7137C565.724 87.3951 567.228 88.5307 568.08 90.1205C568.988 91.7104 569.443 93.8396 569.443 96.5083V109.113H554.538C549.428 109.113 545.254 109 542.018 108.773C538.838 108.546 536.709 108.404 535.63 108.347V113.031C535.573 115.302 536.936 116.438 539.718 116.438H544.062C547.128 116.438 550.109 116.41 553.005 116.353C555.957 116.239 558.655 116.126 561.096 116.012C563.538 115.842 565.497 115.7 566.973 115.586L570.38 121.122C570.38 122.883 564.787 123.763 553.601 123.763H536.482ZM535.63 101.789H559.052V96.3379C559.052 95.2023 558.91 94.4074 558.626 93.9532C558.399 93.4989 557.661 93.215 556.412 93.1015C555.163 92.9879 553.033 92.9311 550.024 92.9311H539.718C536.993 92.9311 535.63 94.0667 535.63 96.3379V101.789Z" fill="#0F52A4"/>
<path d="M470.281 123.763V68.5725H480.672V87.3099C483.057 86.8557 485.924 86.4582 489.274 86.1175C492.624 85.7768 496.457 85.6065 500.772 85.6065H505.031C507.87 85.6065 510.056 86.004 511.589 86.7989C513.122 87.5938 514.201 88.5875 514.825 89.7798C515.507 90.9722 515.904 92.193 516.018 93.4422C516.188 94.6345 516.273 95.6566 516.273 96.5083V123.763H505.883V96.3379C505.883 94.0667 504.52 92.9311 501.794 92.9311H483.227C482.149 92.9311 481.439 93.0447 481.098 93.2718C480.814 93.4421 480.672 93.9532 480.672 94.8049V123.763H470.281Z" fill="#0F52A4"/>
<path d="M430.435 123.763C427.596 123.763 425.41 123.394 423.877 122.655C422.344 121.917 421.237 120.98 420.556 119.845C419.931 118.709 419.534 117.517 419.363 116.268C419.25 115.019 419.193 113.883 419.193 112.861V96.5083C419.193 95.6566 419.25 94.6345 419.363 93.4421C419.534 92.193 419.931 90.9722 420.556 89.7798C421.237 88.5875 422.344 87.5938 423.877 86.7989C425.467 86.004 427.653 85.6065 430.435 85.6065H442.274C449.371 85.6065 454.396 85.8052 457.349 86.2027C460.358 86.5434 461.863 86.9124 461.863 87.3099L460.16 93.7828C458.57 93.6693 456.554 93.5557 454.113 93.4421C451.671 93.2718 449.031 93.1582 446.192 93.1015C443.41 92.9879 440.684 92.9311 438.015 92.9311H433.672C430.946 92.9311 429.584 94.0667 429.584 96.3379V113.031C429.527 115.302 430.89 116.438 433.672 116.438H438.015C441.082 116.438 444.062 116.41 446.958 116.353C449.911 116.239 452.608 116.126 455.049 116.012C457.491 115.842 459.45 115.7 460.926 115.586L464.333 121.122C464.333 122.883 458.74 123.763 447.554 123.763H430.435Z" fill="#0F52A4"/>
<path d="M399.437 123.763V76.5785L398.585 69.7649H409.828V123.763H399.437Z" fill="#0F52A4"/>
<path d="M203.038 123.763C200.199 123.763 198.013 123.394 196.48 122.655C194.947 121.917 193.84 120.98 193.158 119.845C192.534 118.709 192.136 117.517 191.966 116.268C191.852 115.019 191.796 113.883 191.796 112.861V96.5083C191.796 95.6566 191.852 94.6345 191.966 93.4422C192.136 92.193 192.534 90.9722 193.158 89.7798C193.84 88.5875 194.947 87.5938 196.48 86.7989C198.07 86.004 200.256 85.6065 203.038 85.6065H207.382C212.606 85.6065 216.807 85.7201 219.987 85.9472C223.223 86.1175 225.693 86.3163 227.397 86.5434V69.7649H237.787V123.763H230.804L227.482 122.059C225.097 122.457 222.23 122.854 218.88 123.252C215.53 123.592 211.669 123.763 207.297 123.763H203.038ZM206.275 116.438H224.756C225.949 116.438 226.687 116.296 226.971 116.012C227.255 115.728 227.397 115.019 227.397 113.883V93.5273C225.466 93.4138 223.025 93.3002 220.072 93.1866C217.12 93.0163 213.968 92.9311 210.618 92.9311H206.275C203.549 92.9311 202.186 94.0667 202.186 96.3379V113.031C202.186 115.302 203.549 116.438 206.275 116.438Z" fill="#0F52A4"/>
<path d="M149.979 123.763V85.6065H156.963L160.199 87.3099C161.676 86.515 163.266 85.8904 164.969 85.4362C166.672 84.9819 168.83 84.7548 171.442 84.7548C175.587 84.7548 178.937 85.209 181.492 86.1175C184.104 87.026 185.836 87.7074 186.687 88.1616L183.706 95.5714C183.025 95.2307 181.889 94.8049 180.3 94.2938C178.766 93.726 176.95 93.215 174.849 92.7608C172.748 92.3065 170.448 92.0794 167.95 92.0794H167.013C164.288 92.0794 162.499 92.6188 161.647 93.6976C160.852 94.7765 160.427 96.565 160.37 99.0634V123.763H149.979Z" fill="#0F52A4"/>
<path d="M105.891 123.763C102.087 123.763 99.2479 122.996 97.3741 121.463C95.5572 119.93 94.6487 117.432 94.6487 113.968V96.5083C94.6487 95.6566 94.7055 94.6345 94.819 93.4421C94.9894 92.193 95.3868 90.9722 96.0114 89.7798C96.6928 88.5875 97.8 87.5938 99.333 86.7989C100.923 86.004 103.109 85.6065 105.891 85.6065H129.398C132.237 85.6065 134.423 86.004 135.956 86.7989C137.489 87.5938 138.568 88.5875 139.193 89.7798C139.874 90.9722 140.271 92.193 140.385 93.4421C140.555 94.6345 140.64 95.6566 140.64 96.5083V112.861C140.64 113.883 140.555 115.019 140.385 116.268C140.271 117.517 139.874 118.709 139.193 119.845C138.511 120.98 137.404 121.917 135.871 122.655C134.338 123.394 132.18 123.763 129.398 123.763H105.891ZM109.128 116.438H126.162C128.944 116.438 130.335 115.302 130.335 113.031V96.3379C130.335 94.0667 128.944 92.9311 126.162 92.9311H109.128C106.402 92.9311 105.039 94.0667 105.039 96.3379V113.031C105.039 115.302 106.402 116.438 109.128 116.438Z" fill="#0F52A4"/>
<path d="M18.3116 123.763L0 73.7679H11.9238L23.9328 106.473L25.8917 114.735H26.7434L27.8506 108.943L39.1782 73.7679H53.6571L65.4957 108.943L67.0288 114.735H67.8805L69.8394 106.473L80.9967 73.7679H92.9205L92.0688 78.8781L74.5238 123.763H60.0449L48.4617 90.2909L46.7583 84.84H45.9066L44.2884 90.2909L32.7905 123.763H18.3116Z" fill="#0F52A4"/>
<path d="M370.879 84.533L321.894 1.38579C321.642 1.00785 321.264 0.629907 320.887 0.377946C320.509 0.125984 320.005 0 319.502 0C318.998 0 318.494 0.125984 318.116 0.377946C317.739 0.629907 317.361 1.00785 317.109 1.38579L302.502 26.33C301.998 27.0858 301.746 28.0937 301.746 28.9756C301.746 29.8574 301.998 30.8652 302.502 31.6211L334.487 85.9188C334.99 86.6747 335.62 87.4306 336.501 87.9345C337.383 88.4384 338.264 88.6904 339.272 88.6904H368.486C368.99 88.6904 369.494 88.5644 369.872 88.3124C370.249 88.0604 370.627 87.6825 370.879 87.3046C371.131 86.9266 371.257 86.4227 371.257 85.9188C371.257 85.4149 371.131 85.0369 370.879 84.533Z" fill="#0F52A4"/>
<path d="M242.561 127.996L291.546 44.8491C291.798 44.4712 292.176 44.0933 292.553 43.8413C292.931 43.5893 293.435 43.4634 293.939 43.4634C294.442 43.4634 294.946 43.5893 295.324 43.8413C295.701 44.0933 296.079 44.4712 296.331 44.8491L310.938 69.7933C311.442 70.5492 311.694 71.5571 311.694 72.4389C311.694 73.3208 311.442 74.3286 310.938 75.0845L278.953 129.382C278.45 130.138 277.82 130.894 276.939 131.398C276.057 131.902 275.176 132.154 274.168 132.154H244.828C244.324 132.154 243.82 132.028 243.443 131.776C243.065 131.524 242.687 131.146 242.435 130.768C242.183 130.39 242.057 129.886 242.057 129.382C242.183 128.878 242.309 128.5 242.561 127.996Z" fill="#0F52A4"/>
<path d="M296.205 132.028H394.175C394.679 132.028 395.182 131.902 395.56 131.65C395.938 131.398 396.316 131.02 396.568 130.642C396.819 130.264 396.945 129.76 396.945 129.256C396.945 128.752 396.819 128.374 396.568 127.87L381.96 102.926C381.457 102.17 380.827 101.414 379.945 100.91C379.064 100.406 378.183 100.154 377.175 100.154H313.331C312.324 100.154 311.442 100.406 310.561 100.91C309.679 101.414 309.05 102.044 308.546 102.926L293.939 127.87C293.687 128.248 293.561 128.752 293.561 129.256C293.561 129.76 293.687 130.138 293.939 130.642C294.19 131.02 294.568 131.398 294.946 131.65C295.324 131.902 295.827 132.028 296.205 132.028Z" fill="#0F52A4"/>
</svg>
